<svg width="500" height="500" viewBox="0 0 500 500" fill="none" xmlns="http://www.w3.org/2000/svg">
<circle cx="250" cy="250" r="250" fill="#252425"/>
<path d="M263.828 141.2V150.84H244.548V324.36H263.828V334H172.248V324.36H189.118V240.01H133.688V324.36H150.558V334H58.9782V324.36H78.2582V150.84H58.9782V141.2H150.558V150.84H133.688V230.37H189.118V150.84H172.248V141.2H263.828ZM280.613 276.16H291.458V302.188L313.63 324.36H391.232L283.023 196.871V163.613L305.436 141.2H400.149L417.019 158.07V138.79H427.864V199.04H417.019V173.012L394.847 150.84H324.475L432.684 278.329V311.587L410.271 334H308.328L291.458 317.13V336.41H280.613V276.16Z" fill="#828AD8"/>
<path d="M54.1582 358.1H444.734V370.15H54.1582V358.1Z" fill="#828AD8"/>
</svg>
